<svg xmlns="http://www.w3.org/2000/svg" viewBox="0 0 32 40" x="0px" y="0px"><title>1</title><g data-name="trash"><path d="M23.59,29.5H8.5l-2-23h19.1Zm-14.17-1H22.66l1.79-21H7.55Z"/><path d="M27,7.5H5a.5.5,0,0,1,0-1H27a.5.5,0,0,1,0,1Z"/><path d="M20.38,7.5H11.6V6.07a2.5,2.5,0,0,1,2.5-2.5h3.78a2.5,2.5,0,0,1,2.5,2.5Zm-7.78-1h6.78V6.07a1.51,1.51,0,0,0-1.5-1.5H14.1a1.5,1.5,0,0,0-1.5,1.5Z"/><rect x="15.49" y="10.53" width="1" height="14.97" rx="0.5" ry="0.5"/><rect x="11.6" y="10.53" width="1" height="14.97" rx="0.5" ry="0.5"/><rect x="19.38" y="10.53" width="1" height="14.97" rx="0.5" ry="0.5"/></g><text x="0" y="47" fill="#000000" font-size="5px" font-weight="bold" font-family="'Helvetica Neue', Helvetica, Arial-Unicode, Arial, Sans-serif">Created by Muhammad Rendi</text><text x="0" y="52" fill="#000000" font-size="5px" font-weight="bold" font-family="'Helvetica Neue', Helvetica, Arial-Unicode, Arial, Sans-serif">from the Noun Project</text></svg>